<mxfile host="65bd71144e" scale="2" border="30">
    <diagram id="lD9RN59uFm-hQWqidAp6" name="第 1 页">
        <mxGraphModel dx="1036" dy="595" grid="1" gridSize="10" guides="1" tooltips="1" connect="1" arrows="1" fold="1" page="1" pageScale="1" pageWidth="1654" pageHeight="2336" background="#FFFFFF" math="0" shadow="0">
            <root>
                <mxCell id="0"/>
                <mxCell id="1" parent="0"/>
                <mxCell id="322" value="" style="rounded=1;whiteSpace=wrap;html=1;fontColor=#345253;fillColor=none;arcSize=0;dashed=1;" vertex="1" parent="1">
                    <mxGeometry x="367.5" y="219" width="725" height="390" as="geometry"/>
                </mxCell>
                <mxCell id="309" style="edgeStyle=none;html=1;exitX=1;exitY=0.5;exitDx=0;exitDy=0;entryX=0;entryY=0.5;entryDx=0;entryDy=0;fontColor=#345253;endArrow=block;endFill=1;" edge="1" parent="1" source="219" target="237">
                    <mxGeometry relative="1" as="geometry"/>
                </mxCell>
                <mxCell id="219" value="" style="rounded=0;whiteSpace=wrap;html=1;fillColor=#EDF2F4;strokeColor=none;" parent="1" vertex="1">
                    <mxGeometry x="130" y="339" width="160" height="150" as="geometry"/>
                </mxCell>
                <mxCell id="223" value="" style="rounded=0;whiteSpace=wrap;html=1;strokeColor=none;fillColor=#6E96A6;fontStyle=0" parent="1" vertex="1">
                    <mxGeometry x="145" y="379" width="130" height="95" as="geometry"/>
                </mxCell>
                <mxCell id="224" value="&lt;font color=&quot;#ffffff&quot;&gt;Driver&lt;/font&gt;" style="rounded=0;whiteSpace=wrap;html=1;strokeColor=none;fillColor=#345253;fontStyle=0;fontFamily=Tahoma;" parent="1" vertex="1">
                    <mxGeometry x="160" y="419" width="100" height="40" as="geometry"/>
                </mxCell>
                <mxCell id="225" value="&lt;font color=&quot;#ffffff&quot;&gt;SparkSubmit&lt;/font&gt;" style="text;html=1;strokeColor=none;fillColor=none;align=center;verticalAlign=middle;whiteSpace=wrap;rounded=0;fontFamily=Tahoma;fontStyle=0" parent="1" vertex="1">
                    <mxGeometry x="155" y="389" width="110" height="20" as="geometry"/>
                </mxCell>
                <mxCell id="226" value="&lt;b&gt;&lt;font color=&quot;#345253&quot;&gt;Local Node&lt;/font&gt;&lt;/b&gt;" style="text;html=1;strokeColor=none;fillColor=none;align=center;verticalAlign=middle;whiteSpace=wrap;rounded=0;fontFamily=Tahoma;" parent="1" vertex="1">
                    <mxGeometry x="175" y="349" width="70" height="20" as="geometry"/>
                </mxCell>
                <mxCell id="227" value="" style="rounded=0;whiteSpace=wrap;html=1;fillColor=#EDF2F4;strokeColor=none;" parent="1" vertex="1">
                    <mxGeometry x="910" y="296.5" width="160" height="235" as="geometry"/>
                </mxCell>
                <mxCell id="244" style="edgeStyle=none;html=1;entryX=0.5;entryY=0;entryDx=0;entryDy=0;fontStyle=0;endArrow=block;endFill=1;" parent="1" source="228" target="234" edge="1">
                    <mxGeometry relative="1" as="geometry"/>
                </mxCell>
                <mxCell id="228" value="&lt;span style=&quot;color: rgb(255 , 255 , 255)&quot;&gt;NodeManager&lt;/span&gt;" style="rounded=0;whiteSpace=wrap;html=1;strokeColor=none;fillColor=#6E96A6;fontFamily=Tahoma;fontStyle=0" parent="1" vertex="1">
                    <mxGeometry x="925" y="338" width="130" height="50" as="geometry"/>
                </mxCell>
                <mxCell id="231" value="&lt;b&gt;&lt;font color=&quot;#345253&quot;&gt;Slave&amp;nbsp;&lt;/font&gt;&lt;/b&gt;&lt;b&gt;&lt;font color=&quot;#345253&quot;&gt;Node&lt;/font&gt;&lt;/b&gt;" style="text;html=1;strokeColor=none;fillColor=none;align=center;verticalAlign=middle;whiteSpace=wrap;rounded=0;fontFamily=Tahoma;" parent="1" vertex="1">
                    <mxGeometry x="945" y="306.5" width="90" height="20" as="geometry"/>
                </mxCell>
                <mxCell id="234" value="" style="rounded=0;whiteSpace=wrap;html=1;strokeColor=none;fillColor=#6E96A6;fontStyle=0" parent="1" vertex="1">
                    <mxGeometry x="925" y="428" width="130" height="90" as="geometry"/>
                </mxCell>
                <mxCell id="314" style="edgeStyle=orthogonalEdgeStyle;html=1;entryX=0.5;entryY=1;entryDx=0;entryDy=0;fontColor=#345253;endArrow=block;endFill=1;startArrow=block;startFill=1;rounded=0;" edge="1" parent="1" source="235" target="224">
                    <mxGeometry relative="1" as="geometry">
                        <Array as="points">
                            <mxPoint x="990" y="580"/>
                            <mxPoint x="210" y="580"/>
                        </Array>
                    </mxGeometry>
                </mxCell>
                <mxCell id="235" value="&lt;font color=&quot;#ffffff&quot;&gt;Executor&lt;/font&gt;" style="rounded=0;whiteSpace=wrap;html=1;strokeColor=none;fillColor=#345253;fontStyle=0;fontFamily=Tahoma;" parent="1" vertex="1">
                    <mxGeometry x="940" y="465.5" width="100" height="40" as="geometry"/>
                </mxCell>
                <mxCell id="236" value="&lt;font color=&quot;#ffffff&quot;&gt;ExecutorBackend&lt;/font&gt;" style="text;html=1;strokeColor=none;fillColor=none;align=center;verticalAlign=middle;whiteSpace=wrap;rounded=0;fontFamily=Tahoma;fontStyle=0" parent="1" vertex="1">
                    <mxGeometry x="935" y="438" width="110" height="20" as="geometry"/>
                </mxCell>
                <mxCell id="326" style="edgeStyle=none;html=1;exitX=1;exitY=0.5;exitDx=0;exitDy=0;entryX=0;entryY=0.5;entryDx=0;entryDy=0;fontColor=#345253;startArrow=none;startFill=0;endArrow=block;endFill=1;" edge="1" parent="1" source="237" target="297">
                    <mxGeometry relative="1" as="geometry"/>
                </mxCell>
                <mxCell id="237" value="" style="rounded=0;whiteSpace=wrap;html=1;fillColor=#EDF2F4;strokeColor=none;" parent="1" vertex="1">
                    <mxGeometry x="390" y="359" width="160" height="110" as="geometry"/>
                </mxCell>
                <mxCell id="238" value="&lt;b&gt;&lt;font color=&quot;#345253&quot;&gt;Master Node&lt;/font&gt;&lt;/b&gt;" style="text;html=1;strokeColor=none;fillColor=none;align=center;verticalAlign=middle;whiteSpace=wrap;rounded=0;fontFamily=Tahoma;" parent="1" vertex="1">
                    <mxGeometry x="430" y="369" width="80" height="20" as="geometry"/>
                </mxCell>
                <mxCell id="239" value="&lt;font color=&quot;#ffffff&quot;&gt;ResourceManager&lt;/font&gt;" style="rounded=0;whiteSpace=wrap;html=1;strokeColor=none;fillColor=#6E96A6;fontFamily=Tahoma;fontStyle=0" parent="1" vertex="1">
                    <mxGeometry x="405" y="404" width="130" height="50" as="geometry"/>
                </mxCell>
                <mxCell id="250" value="&lt;b&gt;8.&lt;/b&gt;&amp;nbsp;&lt;span style=&quot;background-color: rgb(237 , 242 , 244)&quot;&gt;run ExecutorBackend&lt;/span&gt;" style="text;html=1;strokeColor=none;fillColor=none;align=center;verticalAlign=middle;whiteSpace=wrap;rounded=0;rotation=0;fontStyle=2" parent="1" vertex="1">
                    <mxGeometry x="920" y="393" width="140" height="20" as="geometry"/>
                </mxCell>
                <mxCell id="287" value="1.&lt;span style=&quot;font-weight: normal&quot;&gt; submit&lt;br&gt;application&lt;/span&gt;" style="text;html=1;strokeColor=none;align=center;verticalAlign=middle;whiteSpace=wrap;rounded=0;rotation=0;fontStyle=3;" parent="1" vertex="1">
                    <mxGeometry x="280" y="382" width="110" height="34" as="geometry"/>
                </mxCell>
                <mxCell id="325" style="edgeStyle=none;html=1;entryX=0;entryY=0.5;entryDx=0;entryDy=0;fontColor=#345253;startArrow=none;startFill=0;endArrow=block;endFill=1;" edge="1" parent="1" source="297" target="227">
                    <mxGeometry relative="1" as="geometry"/>
                </mxCell>
                <mxCell id="297" value="" style="rounded=0;whiteSpace=wrap;html=1;fillColor=#EDF2F4;strokeColor=none;" vertex="1" parent="1">
                    <mxGeometry x="650" y="296.5" width="160" height="235" as="geometry"/>
                </mxCell>
                <mxCell id="298" value="&lt;b&gt;&lt;font color=&quot;#345253&quot;&gt;Slave Node&lt;/font&gt;&lt;/b&gt;" style="text;html=1;strokeColor=none;fillColor=none;align=center;verticalAlign=middle;whiteSpace=wrap;rounded=0;fontFamily=Tahoma;" vertex="1" parent="1">
                    <mxGeometry x="685" y="306.5" width="90" height="20" as="geometry"/>
                </mxCell>
                <mxCell id="299" style="edgeStyle=none;html=1;exitX=0.5;exitY=1;exitDx=0;exitDy=0;entryX=0.5;entryY=0;entryDx=0;entryDy=0;startArrow=none;startFill=0;endArrow=block;endFill=1;" edge="1" parent="1" source="300" target="301">
                    <mxGeometry relative="1" as="geometry"/>
                </mxCell>
                <mxCell id="300" value="&lt;font color=&quot;#ffffff&quot;&gt;NodeManager&lt;/font&gt;" style="rounded=0;whiteSpace=wrap;html=1;strokeColor=none;fillColor=#6E96A6;fontFamily=Tahoma;fontStyle=0" vertex="1" parent="1">
                    <mxGeometry x="665" y="338" width="130" height="50" as="geometry"/>
                </mxCell>
                <mxCell id="301" value="" style="rounded=0;whiteSpace=wrap;html=1;strokeColor=none;fillColor=#6E96A6;fontStyle=0" vertex="1" parent="1">
                    <mxGeometry x="665" y="428" width="130" height="90" as="geometry"/>
                </mxCell>
                <mxCell id="303" value="&lt;span style=&quot;color: rgb(255 , 255 , 255)&quot;&gt;ExecutorLauncher&lt;/span&gt;" style="text;html=1;strokeColor=none;fillColor=none;align=center;verticalAlign=middle;whiteSpace=wrap;rounded=0;fontFamily=Tahoma;fontStyle=0" vertex="1" parent="1">
                    <mxGeometry x="675" y="438" width="110" height="20" as="geometry"/>
                </mxCell>
                <mxCell id="304" value="&lt;span style=&quot;background-color: rgb(237 , 242 , 244)&quot;&gt;&lt;b&gt;3.&lt;/b&gt; run ExecutorLauncher&lt;/span&gt;" style="text;html=1;strokeColor=none;fillColor=none;align=center;verticalAlign=middle;whiteSpace=wrap;rounded=0;rotation=0;fontStyle=2" vertex="1" parent="1">
                    <mxGeometry x="660" y="393" width="140" height="20" as="geometry"/>
                </mxCell>
                <mxCell id="320" style="edgeStyle=orthogonalEdgeStyle;html=1;exitX=0;exitY=0.5;exitDx=0;exitDy=0;entryX=0.5;entryY=1;entryDx=0;entryDy=0;fontColor=#345253;startArrow=block;startFill=1;endArrow=block;endFill=1;rounded=0;" edge="1" parent="1" source="315" target="239">
                    <mxGeometry relative="1" as="geometry"/>
                </mxCell>
                <mxCell id="330" style="rounded=0;html=1;entryX=0.75;entryY=1;entryDx=0;entryDy=0;fontColor=#345253;startArrow=none;startFill=0;endArrow=block;endFill=1;exitX=0.5;exitY=1;exitDx=0;exitDy=0;edgeStyle=orthogonalEdgeStyle;" edge="1" parent="1" source="315" target="224">
                    <mxGeometry relative="1" as="geometry">
                        <Array as="points">
                            <mxPoint x="730" y="550"/>
                            <mxPoint x="235" y="550"/>
                        </Array>
                    </mxGeometry>
                </mxCell>
                <mxCell id="315" value="&lt;font color=&quot;#ffffff&quot;&gt;ApplicationMaster&lt;/font&gt;" style="rounded=0;whiteSpace=wrap;html=1;strokeColor=none;fillColor=#345253;fontStyle=0;fontFamily=Tahoma;" vertex="1" parent="1">
                    <mxGeometry x="680" y="465.5" width="100" height="40" as="geometry"/>
                </mxCell>
                <mxCell id="323" value="&lt;font face=&quot;Tahoma&quot; style=&quot;font-size: 14px&quot;&gt;Yarn Cluster&lt;/font&gt;" style="text;html=1;strokeColor=none;fillColor=none;align=center;verticalAlign=middle;whiteSpace=wrap;rounded=0;dashed=1;fontColor=#345253;fontStyle=1" vertex="1" parent="1">
                    <mxGeometry x="670" y="240" width="120" height="20" as="geometry"/>
                </mxCell>
                <mxCell id="327" value="2.&lt;span style=&quot;font-weight: normal&quot;&gt; prepare&lt;br&gt;command&lt;/span&gt;" style="text;html=1;strokeColor=none;align=center;verticalAlign=middle;whiteSpace=wrap;rounded=0;rotation=0;fontStyle=3;" vertex="1" parent="1">
                    <mxGeometry x="545" y="382" width="110" height="34" as="geometry"/>
                </mxCell>
                <mxCell id="328" value="&lt;b&gt;4.&lt;/b&gt;&amp;nbsp;register to RM" style="text;html=1;strokeColor=none;fillColor=none;align=center;verticalAlign=middle;whiteSpace=wrap;rounded=0;rotation=0;fontStyle=2" vertex="1" parent="1">
                    <mxGeometry x="510" y="465.5" width="110" height="20" as="geometry"/>
                </mxCell>
                <mxCell id="329" value="&lt;b&gt;6.&lt;/b&gt;&amp;nbsp;allocate resources" style="text;html=1;strokeColor=none;fillColor=none;align=center;verticalAlign=middle;whiteSpace=wrap;rounded=0;rotation=0;fontStyle=2" vertex="1" parent="1">
                    <mxGeometry x="505" y="485.5" width="120" height="20" as="geometry"/>
                </mxCell>
                <mxCell id="331" value="&lt;b&gt;5.&lt;/b&gt;&amp;nbsp;register to Driver" style="text;html=1;strokeColor=none;fillColor=none;align=center;verticalAlign=middle;whiteSpace=wrap;rounded=0;rotation=0;fontStyle=2" vertex="1" parent="1">
                    <mxGeometry x="410" y="531.5" width="120" height="20" as="geometry"/>
                </mxCell>
                <mxCell id="332" value="7.&lt;span style=&quot;font-weight: normal&quot;&gt; prepare&lt;br&gt;command&lt;/span&gt;" style="text;html=1;strokeColor=none;align=center;verticalAlign=middle;whiteSpace=wrap;rounded=0;rotation=0;fontStyle=3;" vertex="1" parent="1">
                    <mxGeometry x="803" y="382" width="110" height="34" as="geometry"/>
                </mxCell>
                <mxCell id="333" value="&lt;b&gt;9.&lt;/b&gt;&amp;nbsp;register executor" style="text;html=1;strokeColor=none;fillColor=none;align=center;verticalAlign=middle;whiteSpace=wrap;rounded=0;rotation=0;fontStyle=2" vertex="1" parent="1">
                    <mxGeometry x="550" y="560" width="120" height="20" as="geometry"/>
                </mxCell>
                <mxCell id="334" value="&lt;b&gt;10.&lt;/b&gt;&amp;nbsp;launch executor" style="text;html=1;strokeColor=none;fillColor=none;align=center;verticalAlign=middle;whiteSpace=wrap;rounded=0;rotation=0;fontStyle=2" vertex="1" parent="1">
                    <mxGeometry x="550" y="580" width="120" height="20" as="geometry"/>
                </mxCell>
                <mxCell id="306" value="&lt;font style=&quot;font-size: 10px;&quot;&gt;YarnClient&lt;/font&gt;" style="rounded=0;whiteSpace=wrap;html=1;strokeColor=none;fontStyle=0;fontFamily=Tahoma;fillColor=#FFD966;fontColor=#345253;fontSize=10;" vertex="1" parent="1">
                    <mxGeometry x="180" y="413" width="60" height="15" as="geometry"/>
                </mxCell>
                <mxCell id="302" value="&lt;font style=&quot;font-size: 10px ; line-height: 100%&quot;&gt;AMRMClient&lt;/font&gt;" style="rounded=0;whiteSpace=wrap;html=1;strokeColor=none;fontStyle=0;fontFamily=Tahoma;fillColor=#FFD966;fontColor=#345253;fontSize=10;spacing=0;" vertex="1" parent="1">
                    <mxGeometry x="665" y="459" width="60" height="15" as="geometry"/>
                </mxCell>
                <mxCell id="305" value="&lt;font style=&quot;font-size: 10px; line-height: 100%;&quot;&gt;NMClient&lt;/font&gt;" style="rounded=0;whiteSpace=wrap;html=1;strokeColor=none;fontStyle=0;fontFamily=Tahoma;fillColor=#FFD966;fontColor=#345253;spacing=0;fontSize=10;" vertex="1" parent="1">
                    <mxGeometry x="735" y="459" width="60" height="15" as="geometry"/>
                </mxCell>
            </root>
        </mxGraphModel>
    </diagram>
</mxfile>